# xmcd
#
# Track frame offsets: 
#        150
#        8873
#        29969
#        50675
#        70982
#        91513
#        109647
#        130510
#        148610
#        167617
#        199659
#
# Disc length: 4135 seconds
#
# Revision: 0
# Processed by: cddbd v1.5.2PL0 Copyright (c) Steve Scherf et al.
# Submitted via: ExactAudioCopy v1.0b3
#
DISCID=9110250b
DTITLE=Fortaleza - Quinta Sinfonía
DYEAR=2014
DGENRE=Metal
TTITLE0=Obertura
TTITLE1=El Último Suspiro
TTITLE2=Sin Decir Adiós
TTITLE3=Noveno Vals
TTITLE4=Caminos
TTITLE5=Andante Solitario
TTITLE6=El Séptimo Sello
TTITLE7=Solamente Una Vez
TTITLE8=Voce Forte
TTITLE9=Fuga En Mí
TTITLE10=Data
EXTD=
EXTT0=
EXTT1=
EXTT2=
EXTT3=
EXTT4=
EXTT5=
EXTT6=
EXTT7=
EXTT8=
EXTT9=
EXTT10=
PLAYORDER=
